<svg width="70" height="75" viewBox="0 0 70 75" fill="none" xmlns="http://www.w3.org/2000/svg">
<path d="M69.6388 35.5814C69.8374 35.3856 69.8374 35.065 69.6388 34.8692L35.351 1.07128C35.1564 0.879397 34.8437 0.879397 34.649 1.07128L0.36128 34.8692C0.162615 35.065 0.162613 35.3856 0.361279 35.5814L20.6481 55.5784C20.7435 55.6724 20.7971 55.8007 20.7971 55.9345V69.5161C20.7971 69.6499 20.8508 69.7782 20.9461 69.8722L25.0186 73.8865C25.3346 74.1979 25.8696 73.9741 25.8696 73.5304V51.9345C25.8696 51.8007 25.8159 51.6724 25.7206 51.5784L9.49171 35.5814C9.29305 35.3856 9.29305 35.065 9.49171 34.8692L34.649 10.0713C34.8437 9.8794 35.1564 9.8794 35.351 10.0713L60.5084 34.8692C60.707 35.065 60.707 35.3856 60.5084 35.5814L44.2795 51.5784C44.1841 51.6724 44.1305 51.8007 44.1305 51.9345V73.5304C44.1305 73.9741 44.6655 74.1979 44.9815 73.8865L49.0539 69.8722C49.1493 69.7782 49.2029 69.6499 49.2029 69.5161V55.9345C49.2029 55.8007 49.2566 55.6724 49.3519 55.5784L69.6388 35.5814Z" fill="#00C8FF"/>
<path fill-rule="evenodd" clip-rule="evenodd" d="M10 58.2253C10 56.2178 11.2851 54.0424 12.8879 52.1415L17.7971 56.9806V63.2253C14.7254 63.2253 10 62.0875 10 58.2253ZM51.3103 40.015C51.3813 40.2005 51.3358 40.4104 51.1944 40.5498L43.4734 48.1605C43.2343 45.5437 41.3195 41.2253 35 41.2253C28.6805 41.2253 26.7657 45.5437 26.5267 48.1606L18.8057 40.5498C18.6642 40.4104 18.6187 40.2005 18.6897 40.015L25.5 22.2253C25.8958 21.1909 28.0849 18.4513 31.6146 17.2748C32.6347 16.9348 33.7669 16.7253 35 16.7253C36.2332 16.7253 37.3653 16.9348 38.3854 17.2748C41.9151 18.4513 44.1042 21.1909 44.5 22.2253L51.3103 40.015ZM28.8696 63.2253V57.2253H41.1305V63.2253H28.8696ZM52.2029 57.1898C52.2029 57.056 52.2566 56.9277 52.3519 56.8337L57.1122 52.1415C58.7149 54.0424 60 56.2178 60 58.2253C60 61.8838 55.7601 63.0977 52.7019 63.2156C52.426 63.2262 52.2029 63.0014 52.2029 62.7253V57.1898Z" fill="#FFC800"/>
</svg>
