<svg width="44" height="45" viewBox="0 0 44 45" fill="none" xmlns="http://www.w3.org/2000/svg">
<path fill-rule="evenodd" clip-rule="evenodd" d="M37.293 0.75C37.4256 0.75 37.5527 0.802678 37.6465 0.896447L43.8536 7.10355C43.9474 7.19732 44.0001 7.3245 44.0001 7.45711V38.0429C44.0001 38.1755 43.9474 38.3027 43.8536 38.3964L37.6465 44.6036C37.5527 44.6973 37.4256 44.75 37.293 44.75H6.70717C6.57456 44.75 6.44738 44.6973 6.35361 44.6036L0.146508 38.3964C0.0527394 38.3027 6.10352e-05 38.1755 6.10352e-05 38.0429V7.45711C6.10352e-05 7.3245 0.0527394 7.19732 0.146508 7.10355L6.35361 0.896447C6.44738 0.802678 6.57456 0.75 6.70717 0.75H37.293ZM38.0001 11.9571C38.0001 11.8245 37.9474 11.6973 37.8536 11.6036L33.1465 6.89645C33.0527 6.80268 32.9256 6.75 32.793 6.75H32.0001C31.7239 6.75 31.5001 6.97386 31.5001 7.25V19.25C31.5001 19.5261 31.2762 19.75 31.0001 19.75H13.0001C12.7239 19.75 12.5001 19.5261 12.5001 19.25V7.25C12.5001 6.97386 12.2762 6.75 12.0001 6.75H11.2072C11.0746 6.75 10.9474 6.80268 10.8536 6.89645L6.14651 11.6036C6.05274 11.6973 6.00006 11.8245 6.00006 11.9571V20.5429C6.00006 20.6755 6.05274 20.8027 6.14651 20.8964L10.8536 25.6036C10.9474 25.6973 11.0746 25.75 11.2072 25.75H32.793C32.9256 25.75 33.0527 25.6973 33.1465 25.6036L37.8536 20.8964C37.9474 20.8027 38.0001 20.6755 38.0001 20.5429V11.9571ZM24.5001 6.75C24.7762 6.75 25.0001 6.97386 25.0001 7.25V12.75C25.0001 13.0261 24.7762 13.25 24.5001 13.25H19.5001C19.2239 13.25 19.0001 13.0261 19.0001 12.75V7.25C19.0001 6.97386 19.2239 6.75 19.5001 6.75H24.5001ZM11.2072 38.75C11.0746 38.75 10.9474 38.6973 10.8536 38.6036L6.14651 33.8964C6.05274 33.8027 6.00006 33.6755 6.00006 33.5429V32.75C6.00006 32.4739 6.22392 32.25 6.50006 32.25H37.5001C37.7762 32.25 38.0001 32.4739 38.0001 32.75V33.5429C38.0001 33.6755 37.9474 33.8027 37.8536 33.8964L33.1465 38.6036C33.0527 38.6973 32.9256 38.75 32.793 38.75H11.2072Z" fill="#FFD100"/>
</svg>
