<svg width="44" height="45" viewBox="0 0 44 45" fill="none" xmlns="http://www.w3.org/2000/svg">
<path fill-rule="evenodd" clip-rule="evenodd" d="M37.2929 0.5C37.4255 0.5 37.5527 0.552678 37.6464 0.646447L43.8536 6.85355C43.9473 6.94732 44 7.0745 44 7.20711V37.7929C44 37.9255 43.9473 38.0527 43.8536 38.1464L37.6464 44.3536C37.5527 44.4473 37.4255 44.5 37.2929 44.5H6.70711C6.5745 44.5 6.44732 44.4473 6.35355 44.3536L0.146447 38.1464C0.0526784 38.0527 0 37.9255 0 37.7929V7.20711C0 7.0745 0.0526784 6.94732 0.146447 6.85355L6.35355 0.646447C6.44732 0.552678 6.5745 0.5 6.70711 0.5H37.2929ZM23.3536 25.3536C23.4473 25.4473 23.5745 25.5 23.7071 25.5H37.5C37.7761 25.5 38 25.2761 38 25V20C38 19.7239 37.7761 19.5 37.5 19.5H25.5C25.2239 19.5 25 19.2761 25 19V7C25 6.72386 24.7761 6.5 24.5 6.5H19.5C19.2239 6.5 19 6.72386 19 7V20.7929C19 20.9255 19.0527 21.0527 19.1464 21.1464L23.3536 25.3536ZM6 33.2929C6 33.4255 6.05268 33.5527 6.14645 33.6464L10.8536 38.3536C10.9473 38.4473 11.0745 38.5 11.2071 38.5H32.7929C32.9255 38.5 33.0527 38.4473 33.1464 38.3536L37.8536 33.6464C37.9473 33.5527 38 33.4255 38 33.2929V32.5C38 32.2239 37.7761 32 37.5 32H13C12.7239 32 12.5 31.7761 12.5 31.5V7C12.5 6.72386 12.2761 6.5 12 6.5H11.2071C11.0745 6.5 10.9473 6.55268 10.8536 6.64645L6.14645 11.3536C6.05268 11.4473 6 11.5745 6 11.7071V33.2929ZM37.5 13C37.7761 13 38 12.7761 38 12.5V11.5V7C38 6.72386 37.7761 6.5 37.5 6.5H33H32C31.7239 6.5 31.5 6.72386 31.5 7V12.5C31.5 12.7761 31.7239 13 32 13H37.5Z" fill="#00FF75"/>
</svg>
