<svg width="44" height="45" viewBox="0 0 44 45" fill="none" xmlns="http://www.w3.org/2000/svg">
<path fill-rule="evenodd" clip-rule="evenodd" d="M1.63012e-06 37.7929C1.63592e-06 37.9255 0.0526801 38.0527 0.146448 38.1464L6.35356 44.3536C6.44732 44.4473 6.5745 44.5 6.70711 44.5L37.2929 44.5C37.4255 44.5 37.5527 44.4473 37.6464 44.3536L43.8536 38.1464C43.9473 38.0527 44 37.9255 44 37.7929L44 7.2071C44 7.0745 43.9473 6.94732 43.8536 6.85355L37.6464 0.646445C37.5527 0.552677 37.4255 0.499998 37.2929 0.499998L6.70711 0.5C6.5745 0.5 6.44732 0.552678 6.35355 0.646446L0.146447 6.85355C0.0526788 6.94732 2.87381e-07 7.0745 2.93177e-07 7.20711L1.63012e-06 37.7929ZM11.2071 38.5C11.0745 38.5 10.9473 38.4473 10.8536 38.3536L6.14645 33.6464C6.05268 33.5527 6 33.4255 6 33.2929L6 11.7071C6 11.5745 6.05268 11.4473 6.14645 11.3536L10.8536 6.64645C10.9473 6.55268 11.0745 6.5 11.2071 6.5L24.5 6.5C24.7761 6.5 25 6.72386 25 7L25 12.5C25 12.7761 24.7761 13 24.5 13L13 13C12.7239 13 12.5 13.2239 12.5 13.5L12.5 38C12.5 38.2761 12.2761 38.5 12 38.5L11.2071 38.5ZM32.7929 6.5C32.9255 6.5 33.0527 6.55268 33.1464 6.64645L37.8536 11.3536C37.9473 11.4473 38 11.5745 38 11.7071L38 33.2929C38 33.4255 37.9473 33.5527 37.8536 33.6464L33.1464 38.3536C33.0527 38.4473 32.9255 38.5 32.7929 38.5L19.5 38.5C19.2239 38.5 19 38.2761 19 38L19 32.5C19 32.2239 19.2239 32 19.5 32L31 32C31.2761 32 31.5 31.7761 31.5 31.5L31.5 7C31.5 6.72386 31.7239 6.5 32 6.5L32.7929 6.5ZM25 20C25 19.7239 24.7761 19.5 24.5 19.5L19.5 19.5C19.2239 19.5 19 19.7239 19 20L19 25C19 25.2761 19.2239 25.5 19.5 25.5L24.5 25.5C24.7761 25.5 25 25.2761 25 25L25 20Z" fill="#FF7500"/>
</svg>
