<svg width="44" height="45" viewBox="0 0 44 45" fill="none" xmlns="http://www.w3.org/2000/svg">
<path fill-rule="evenodd" clip-rule="evenodd" d="M0 7.20711C0 7.0745 0.0526785 6.94732 0.146447 6.85355L6.35355 0.646446C6.44732 0.552677 6.5745 0.5 6.70711 0.5H37.2929C37.4255 0.5 37.5527 0.552677 37.6464 0.646446L43.8536 6.85355C43.9473 6.94732 44 7.0745 44 7.20711V37.7929C44 37.9255 43.9473 38.0527 43.8536 38.1464L37.6464 44.3536C37.5527 44.4473 37.4255 44.5 37.2929 44.5H6.70711C6.5745 44.5 6.44732 44.4473 6.35355 44.3536L0.146447 38.1464C0.0526785 38.0527 0 37.9255 0 37.7929L0 7.20711ZM11.2071 6.5C11.0745 6.5 10.9473 6.55268 10.8536 6.64645L6.14645 11.3536C6.05268 11.4473 6 11.5745 6 11.7071V12.5C6 12.7761 6.22386 13 6.5 13H18.5C18.7761 13 19 13.2239 19 13.5L19 31.5C19 31.7761 18.7761 32 18.5 32H6.5C6.22386 32 6 32.2239 6 32.5V33.2929C6 33.4255 6.05268 33.5527 6.14645 33.6464L10.8536 38.3536C10.9473 38.4473 11.0745 38.5 11.2071 38.5H19.7929C19.9255 38.5 20.0527 38.4473 20.1464 38.3536L24.8536 33.6464C24.9473 33.5527 25 33.4255 25 33.2929L25 11.7071C25 11.5745 24.9473 11.4473 24.8536 11.3536L20.1464 6.64645C20.0527 6.55268 19.9255 6.5 19.7929 6.5H11.2071ZM6 20C6 19.7239 6.22386 19.5 6.5 19.5H12C12.2761 19.5 12.5 19.7239 12.5 20V25C12.5 25.2761 12.2761 25.5 12 25.5H6.5C6.22386 25.5 6 25.2761 6 25L6 20ZM38 33.2929C38 33.4255 37.9473 33.5527 37.8536 33.6464L33.1464 38.3536C33.0527 38.4473 32.9255 38.5 32.7929 38.5H32C31.7239 38.5 31.5 38.2761 31.5 38L31.5 7C31.5 6.72386 31.7239 6.5 32 6.5H32.7929C32.9255 6.5 33.0527 6.55268 33.1464 6.64645L37.8536 11.3536C37.9473 11.4473 38 11.5745 38 11.7071V33.2929Z" fill="#FF95DB"/>
</svg>
