<svg width="44" height="45" viewBox="0 0 44 45" fill="none" xmlns="http://www.w3.org/2000/svg">
<path fill-rule="evenodd" clip-rule="evenodd" d="M37.2929 0.5C37.4255 0.5 37.5527 0.552678 37.6464 0.646447L43.8536 6.85355C43.9473 6.94732 44 7.0745 44 7.20711V37.7929C44 37.9255 43.9473 38.0527 43.8536 38.1464L37.6464 44.3536C37.5527 44.4473 37.4255 44.5 37.2929 44.5H6.70711C6.5745 44.5 6.44732 44.4473 6.35355 44.3536L0.146447 38.1464C0.0526784 38.0527 0 37.9255 0 37.7929V7.20711C0 7.0745 0.0526784 6.94732 0.146447 6.85355L6.35355 0.646447C6.44732 0.552678 6.5745 0.5 6.70711 0.5H37.2929ZM38 11.7071C38 11.5745 37.9473 11.4473 37.8536 11.3536L33.1464 6.64645C33.0527 6.55268 32.9255 6.5 32.7929 6.5H11.2071C11.0745 6.5 10.9473 6.55268 10.8536 6.64645L6.14645 11.3536C6.05268 11.4473 6 11.5745 6 11.7071V25C6 25.2761 6.22386 25.5 6.5 25.5H12C12.2761 25.5 12.5 25.2761 12.5 25V13.5C12.5 13.2239 12.7239 13 13 13H37.5C37.7761 13 38 12.7761 38 12.5V11.7071ZM6 33.2929C6 33.4255 6.05268 33.5527 6.14645 33.6464L10.8536 38.3536C10.9473 38.4473 11.0745 38.5 11.2071 38.5H32.7929C32.9255 38.5 33.0527 38.4473 33.1464 38.3536L37.8536 33.6464C37.9473 33.5527 38 33.4255 38 33.2929V20C38 19.7239 37.7761 19.5 37.5 19.5H32C31.7239 19.5 31.5 19.7239 31.5 20V31.5C31.5 31.7761 31.2761 32 31 32H6.5C6.22386 32 6 32.2239 6 32.5V33.2929ZM19.5 25.5C19.2239 25.5 19 25.2761 19 25V20C19 19.7239 19.2239 19.5 19.5 19.5H24.5C24.7761 19.5 25 19.7239 25 20V25C25 25.2761 24.7761 25.5 24.5 25.5H19.5Z" fill="#819BFF"/>
</svg>
