<svg width="44" height="45" viewBox="0 0 44 45" fill="none" xmlns="http://www.w3.org/2000/svg">
<path fill-rule="evenodd" clip-rule="evenodd" d="M44.0001 7.45711C44.0001 7.3245 43.9474 7.19732 43.8536 7.10355L37.6465 0.896447C37.5527 0.802678 37.4256 0.75 37.293 0.75H6.70717C6.57456 0.75 6.44738 0.802678 6.35361 0.896447L0.146508 7.10355C0.0527394 7.19732 6.10352e-05 7.3245 6.10352e-05 7.45711V38.0429C6.10352e-05 38.1755 0.0527394 38.3027 0.146508 38.3964L6.35361 44.6036C6.44738 44.6973 6.57456 44.75 6.70717 44.75H37.293C37.4256 44.75 37.5527 44.6973 37.6465 44.6036L43.8536 38.3964C43.9474 38.3027 44.0001 38.1755 44.0001 38.0429V7.45711ZM11.2072 38.75C11.0746 38.75 10.9474 38.6973 10.8536 38.6036L6.14651 33.8964C6.05274 33.8027 6.00006 33.6755 6.00006 33.5429V32.75C6.00006 32.4739 6.22392 32.25 6.50006 32.25H31.0001C31.2762 32.25 31.5001 32.0261 31.5001 31.75V7.25C31.5001 6.97386 31.7239 6.75 32.0001 6.75H32.793C32.9256 6.75 33.0527 6.80268 33.1465 6.89645L37.8536 11.6036C37.9474 11.6973 38.0001 11.8245 38.0001 11.9571V33.5429C38.0001 33.6755 37.9474 33.8027 37.8536 33.8964L33.1465 38.6036C33.0527 38.6973 32.9256 38.75 32.793 38.75H11.2072ZM6.00006 11.75V7.25C6.00006 6.97386 6.22392 6.75 6.50006 6.75H11.0001H12.0001C12.2762 6.75 12.5001 6.97386 12.5001 7.25V12.75C12.5001 13.0261 12.2762 13.25 12.0001 13.25H6.50006C6.22392 13.25 6.00006 13.0261 6.00006 12.75V11.75ZM18.5001 19.75C18.7762 19.75 19.0001 19.5261 19.0001 19.25V7.25C19.0001 6.97386 19.2239 6.75 19.5001 6.75H24.5001C24.7762 6.75 25.0001 6.97386 25.0001 7.25V21.5429C25.0001 21.6755 24.9474 21.8027 24.8536 21.8964L21.1465 25.6036C21.0527 25.6973 20.9256 25.75 20.793 25.75H6.50006C6.22392 25.75 6.00006 25.5261 6.00006 25.25V20.25C6.00006 19.9739 6.22392 19.75 6.50006 19.75H18.5001Z" fill="#00A8FF"/>
</svg>
