<svg width="58" height="57" viewBox="0 0 58 57" fill="none" xmlns="http://www.w3.org/2000/svg">
<path fill-rule="evenodd" clip-rule="evenodd" d="M1.0693 29.0998C0.874036 28.9045 0.874036 28.5879 1.0693 28.3927L28.6465 0.815491C28.8417 0.620229 29.1583 0.620229 29.3536 0.815491L56.9307 28.3927C57.126 28.5879 57.126 28.9045 56.9307 29.0998L29.3536 56.6769C29.1583 56.8722 28.8417 56.8722 28.6465 56.6769L1.0693 29.0998ZM12.0693 28.9576C11.874 28.7623 11.874 28.4458 12.0693 28.2505L28.5043 11.8155C28.6996 11.6202 29.0162 11.6202 29.2114 11.8155L45.6465 28.2505C45.8417 28.4458 45.8417 28.7623 45.6465 28.9576L29.2114 45.3926C29.0162 45.5879 28.6996 45.5879 28.5043 45.3926L12.0693 28.9576ZM28.9982 16.8155C28.803 16.6202 28.4864 16.6202 28.2911 16.8155L17.0693 28.0373C16.874 28.2326 16.874 28.5492 17.0693 28.7444L28.2911 39.9663C28.4864 40.1615 28.803 40.1615 28.9982 39.9663L40.2201 28.7444C40.4153 28.5492 40.4153 28.2326 40.2201 28.0373L28.9982 16.8155ZM28.9983 23.8155C28.803 23.6202 28.4864 23.6202 28.2911 23.8155L23.9627 28.1439C23.7675 28.3392 23.7675 28.6558 23.9627 28.851L28.2911 33.1794C28.4864 33.3747 28.803 33.3747 28.9983 33.1794L33.3267 28.851C33.5219 28.6558 33.5219 28.3392 33.3267 28.1439L28.9983 23.8155Z" fill="#00C8FF"/>
</svg>
