<svg width="56" height="48" viewBox="0 0 56 48" fill="none" xmlns="http://www.w3.org/2000/svg">
<path d="M0.5 13.2929C0.5 13.0168 0.723858 12.7929 1 12.7929H8C8.27614 12.7929 8.5 13.0168 8.5 13.2929V15.2929C8.5 15.569 8.72386 15.7929 9 15.7929H28C28.2761 15.7929 28.5 16.0168 28.5 16.2929V18.2929C28.5 18.569 28.7239 18.7929 29 18.7929H41.1491C41.863 18.7929 42.5037 19.1916 42.9724 19.7301C44.0724 20.994 45.6929 20.7929 47.5 20.7929C49.3071 20.7929 50.9276 20.994 52.0276 19.7301C52.4963 19.1916 53.137 18.7929 53.8509 18.7929H55C55.2761 18.7929 55.5 19.0168 55.5 19.2929V28.2929C55.5 28.569 55.2761 28.7929 55 28.7929H53.8509C53.137 28.7929 52.4963 28.3942 52.0276 27.8557C50.9276 26.5918 49.3071 26.7929 47.5 26.7929C45.6929 26.7929 44.0724 26.5918 42.9724 27.8557C42.5037 28.3942 41.863 28.7929 41.1491 28.7929H29C28.7239 28.7929 28.5 29.0168 28.5 29.2929V31.2929C28.5 31.569 28.2761 31.7929 28 31.7929H9C8.72386 31.7929 8.5 32.0168 8.5 32.2929V34.2929C8.5 34.569 8.27614 34.7929 8 34.7929H1C0.723858 34.7929 0.5 34.569 0.5 34.2929V13.2929Z" fill="#00C8FF"/>
<path fill-rule="evenodd" clip-rule="evenodd" d="M20.6127 12.7929L26.1881 7.21751C26.3833 7.02225 26.6999 7.02225 26.8952 7.21751L35.4706 15.7929H41.1491C41.7626 15.7929 42.3258 15.9037 42.8348 16.086L26.8952 0.146447C26.6999 -0.0488155 26.3833 -0.0488156 26.1881 0.146447L13.5416 12.7929H20.6127ZM42.9678 31.45C42.4245 31.6618 41.8166 31.7929 41.1491 31.7929H35.5538L26.8952 40.4515C26.6999 40.6468 26.3833 40.6468 26.1881 40.4515L20.5294 34.7929H13.4584L26.1881 47.5226C26.3833 47.7179 26.6999 47.7179 26.8952 47.5226L42.9678 31.45Z" fill="#00C8FF"/>
</svg>
